#!OML:ASF X:\für Bonn\!DataBase\2005_08_12_Daniel\c3d\Daniel.ASF
:FULLY-SPECIFIED
:DEGREES
344
root 15.6323 16.7858 -0.0065696 -750.939 -77.9494 743.829
lowerback 11.5138 -3.76374 -9.83437
upperback 4.09642 -6.45598 -4.80697
thorax -1.60798 -3.35343 1.24517
lowerneck 5.73007 3.46038 1.92402
upperneck 0.907465 4.68805 -0.411551
head -0.609751 2.33498 -0.542488
rclavicle 3.97569e-014 4.77083e-015
rhumerus -35.0082 12.1611 -97.0976
rradius 61.7117
rwrist -3.70755
rhand -23.0478 16.8011
rfingers 7.12502
rthumb 3.39693 -13.1516
lclavicle 3.97569e-014 4.77083e-015
lhumerus -48.8132 15.4865 68.4161
lradius 82.6206
lwrist 185.924
lhand -15.309 9.20086
lfingers 7.12502
lthumb 10.8667 38.8997
rfemur -8.74782 -16.0086 9.40048
rtibia 61.6502
rfoot -23.1995 2.26847
rtoes -8.48031
lfemur -13.1 -6.9044 -28.1965
ltibia 48.0552
lfoot -29.3206 -8.69244
ltoes -13.0047
345
root 15.7107 16.7913 -0.00795551 -751.585 -78.0973 744.57
lowerback 11.346 -3.65344 -9.77158
upperback 4.04381 -6.28419 -4.81161
thorax -1.59461 -3.26644 1.17825
lowerneck 5.62625 3.41238 1.74259
upperneck 0.882823 4.61298 -0.368124
head -0.605786 2.29713 -0.496
rclavicle 2.89232e-014 -9.54166e-015
rhumerus -34.8033 12.2542 -97.1247
rradius 61.3818
rwrist -3.38576
rhand -23.183 16.9902
rfingers 7.12502
rthumb 3.26633 -12.9645
lclavicle 2.89232e-014 -9.54166e-015
lhumerus -49.0319 16.1239 68.4281
lradius 82.3034
lwrist 185.582
lhand -15.6543 9.03192
lfingers 7.12502
lthumb 10.5336 38.748
rfemur -7.68507 -15.7954 9.33985
rtibia 61.3284
rfoot -23.1331 1.94355
rtoes -8.61897
lfemur -13.4389 -6.93432 -28.306
ltibia 47.9629
lfoot -29.1032 -8.40435
ltoes -13.1818
346
root 15.7897 16.7981 -0.00909965 -752.21 -78.2499 745.292
lowerback 11.1728 -3.54498 -9.68392
upperback 4.00637 -6.11014 -4.81103
thorax -1.56399 -3.17942 1.10227
lowerneck 5.47106 3.36795 1.53958
upperneck 0.865707 4.54124 -0.328261
head -0.591077 2.26116 -0.446025
rclavicle 5.4964e-014 7.95139e-015
rhumerus -34.5731 12.348 -97.154
rradius 61.0449
rwrist -3.0581
rhand -23.3241 17.1641
rfingers 7.12502
rthumb 3.13009 -12.7926
lclavicle 5.4964e-014 7.95139e-015
lhumerus -49.2465 16.742 68.4425
lradius 82.0536
lwrist 185.288
lhand -16.0436 8.97394
lfingers 7.12502
lthumb 10.1581 38.7087
rfemur -6.62195 -15.5582 9.30118
rtibia 60.9365
rfoot -23.0163 1.57602
rtoes -8.90097
lfemur -13.7801 -6.94404 -28.3983
ltibia 47.8578
lfoot -28.8629 -8.13417
ltoes -13.2964
347
root 15.8692 16.8039 -0.0115674 -753.002 -78.3801 746.175
lowerback 11.0245 -3.433 -9.60719
upperback 3.95993 -5.93877 -4.83651
thorax -1.55742 -3.09276 1.00843
lowerneck 5.38083 3.32455 1.32941
upperneck 0.815638 4.47203 -0.261749
head -0.598068 2.22592 -0.38889
rclavicle 4.50247e-014 2.8625e-014
rhumerus -34.3843 12.4455 -97.2095
rradius 60.7186
rwrist -2.74577
rhand -23.3861 17.3199
rfingers 7.12502
rthumb 3.07026 -12.6377
lclavicle 4.50247e-014 2.8625e-014
lhumerus -49.4773 17.321 68.4226
lradius 81.8407
lwrist 185.049
lhand -16.4073 8.94266
lfingers 7.12502
lthumb 9.80722 38.6943
rfemur -5.53032 -15.3115 9.23336
rtibia 60.4718
rfoot -22.8632 1.19707
rtoes -9.23233
lfemur -14.1133 -6.95295 -28.5179
ltibia 47.7506
lfoot -28.6013 -7.89555
ltoes -13.3704
348
root 15.9484 16.8074 -0.0143066 -753.976 -78.4912 747.258
lowerback 10.8539 -3.31769 -9.5655
upperback 3.91323 -5.76367 -4.85831
thorax -1.53443 -3.00513 0.935384
lowerneck 5.26174 3.27571 1.07875
upperneck 0.775392 4.39338 -0.191359
head -0.598034 2.18602 -0.323179
rclavicle 2.31584e-014 1.11319e-014
rhumerus -34.1919 12.5362 -97.2445
rradius 60.3807
rwrist -2.38929
rhand -23.4119 17.5407
rfingers 7.12502
rthumb 3.04535 -12.4173
lclavicle 2.31584e-014 1.11319e-014
lhumerus -49.7043 17.8359 68.4401
lradius 81.6819
lwrist 184.825
lhand -16.6974 8.95225
lfingers 7.12502
lthumb 9.52732 38.7169
rfemur -4.42903 -15.0358 9.12506
rtibia 59.9354
rfoot -22.67 0.856536
rtoes -9.50943
lfemur -14.4819 -6.9452 -28.6748
ltibia 47.6656
lfoot -28.3333 -7.65303
ltoes -13.3418
349
root 16.0288 16.8085 -0.0175702 -754.96 -78.5896 748.342
lowerback 10.7155 -3.20611 -9.50807
upperback 3.85868 -5.59724 -4.88611
thorax -1.53834 -2.92039 0.851801
lowerneck 5.16438 3.23141 0.823909
upperneck 0.721929 4.32124 -0.122564
head -0.605599 2.14938 -0.258196
rclavicle -5.96354e-015 -3.49861e-014
rhumerus -34.0379 12.6512 -97.3012
rradius 60.0648
rwrist -2.04566
rhand -23.4478 17.6887
rfingers 7.12502
rthumb 3.01065 -12.2698
lclavicle -5.96354e-015 -3.49861e-014
lhumerus -49.9121 18.339 68.4559
lradius 81.5217
lwrist 184.653
lhand -16.9887 9.02196
lfingers 7.12502
lthumb 9.24627 38.7992
rfemur -3.30076 -14.7146 9.02845
rtibia 59.3263
rfoot -22.4555 0.540902
rtoes -9.69098
lfemur -14.8642 -6.91012 -28.8233
ltibia 47.6118
lfoot -28.0443 -7.4721
ltoes -13.287
350
root 16.111 16.8082 -0.0215874 -755.915 -78.6961 749.402
lowerback 10.5708 -3.09336 -9.41155
upperback 3.81451 -5.42401 -4.91877
thorax -1.53206 -2.83289 0.740783
lowerneck 5.01884 3.18936 0.562937
upperneck 0.701363 4.25191 -0.0467696
head -0.595008 2.11421 -0.188904
rclavicle 5.66536e-015 -1.43125e-014
rhumerus -33.8538 12.7547 -97.3666
rradius 59.7383
rwrist -1.75982
rhand -23.4029 17.8046
rfingers 7.12502
rthumb 3.05403 -12.1532
lclavicle 5.66536e-015 -1.43125e-014
lhumerus -50.0901 18.7706 68.4937
lradius 81.4044
lwrist 184.562
lhand -17.1899 9.05207
lfingers 7.12502
lthumb 9.05206 38.8378
rfemur -2.19048 -14.3229 8.96634
rtibia 58.654
rfoot -22.1772 0.293546
rtoes -9.50099
lfemur -15.2905 -6.82331 -28.9416
ltibia 47.599
lfoot -27.7376 -7.33747
ltoes -13.1238
351
root 16.1941 16.808 -0.0262852 -756.645 -78.8396 750.234
lowerback 10.4357 -2.97954 -9.24011
upperback 3.77054 -5.24205 -4.93836
thorax -1.53632 -2.73995 0.602985
lowerneck 4.8937 3.14011 0.283738
upperneck 0.641174 4.17328 0.0427168
head -0.600727 2.07432 -0.113402
rclavicle 5.18828e-014 -2.54444e-014
rhumerus -33.6857 12.8519 -97.4445
rradius 59.4096
rwrist -1.46383
rhand -23.3302 17.8672
rfingers 7.12502
rthumb 3.12422 -12.0897
lclavicle 5.18828e-014 -2.54444e-014
lhumerus -50.2793 19.1348 68.5614
lradius 81.3582
lwrist 184.552
lhand -17.2671 9.03813
lfingers 7.12502
lthumb 8.97762 38.8271
rfemur -1.09623 -13.8823 8.99883
rtibia 57.9277
rfoot -21.8608 0.0461386
rtoes -9.31081
lfemur -15.7448 -6.69392 -28.9746
ltibia 47.6258
lfoot -27.4395 -7.26684
ltoes -12.9766
352
root 16.2791 16.8063 -0.0315923 -757.229 -78.9989 750.904
lowerback 10.3478 -2.86639 -8.98295
upperback 3.71793 -5.06046 -4.97518
thorax -1.58374 -2.64499 0.404759
lowerneck 4.74885 3.07599 0.0609826
upperneck 0.629747 4.07776 0.108047
head -0.586186 2.0263 -0.0532265
rclavicle -3.97569e-014 1.59028e-015
rhumerus -33.5285 12.9296 -97.5618
rradius 59.0526
rwrist -1.23889
rhand -23.2612 17.9346
rfingers 7.12502
rthumb 3.19085 -12.0213
lclavicle -3.97569e-014 1.59028e-015
lhumerus -50.5085 19.4964 68.6016
lradius 81.3983
lwrist 184.576
lhand -17.3276 9.00097
lfingers 7.12502
lthumb 8.91921 38.7925
rfemur -0.0198074 -13.4054 9.1038
rtibia 57.1583
rfoot -21.6174 -0.209704
rtoes -9.3377
lfemur -16.2203 -6.57373 -28.9598
ltibia 47.6959
lfoot -27.1448 -7.22986
ltoes -12.7685
